<svg width="64" height="64" viewBox="0 0 24 24" fill="none" xmlns="http://www.w3.org/2000/svg"><path fill-rule="evenodd" clip-rule="evenodd" d="m16 2-.2.3-.3.6-2.9 1.4-.1.1a6 6 0 0 0-3.2 4.4V9a7.2 7.2 0 0 1-2 4l-.9.7L5.2 15l-.7 1c-.4 1.1-.3 2.3.3 3.2l1 1 1.4.8.8.5 1.4.8c.5.2.9.4 1.3.4a3.2 3.2 0 0 0 3.4-2.4l.4-1.7.3-1.2v-.1a7.2 7.2 0 0 1 2.3-3.8l.2-.2c1.3-1.2 2-3 2-4.9l-.1-.2-.3-3.2.4-.7.2-.3v-.5a1.3 1.3 0 0 0-.5-1l-.3-.2-.8-.5-.3-.2-.5-.2c-.3 0-.5.1-.8.3L16 2Zm0 2.4 1.5.8.2 3.1v.2l-1 .3a2 2 0 0 1-1.9-.3c-1-.8-2.5-1-3.7-.4a4.4 4.4 0 0 1 2.2-2.4L16 4.4Z" fill="#9BE1A0"/></svg>