<?xml version="1.0" encoding="UTF-8"?>
<svg xmlns="http://www.w3.org/2000/svg" xmlns:xlink="http://www.w3.org/1999/xlink" width="0" height="0">

  <!-- Symbol 1 (hide icon) -->
  <symbol id="hide" width="20" height="20" viewBox="0 0 20 20" fill="none">
    <g clip-path="url(#clip0)">
      <path d="M14.9497 14.9499C13.5252 16.0358 11.7906 16.6373 9.99968 16.6666C4.16634 16.6666 0.833008 9.99994 0.833008 9.99994C1.86958 8.06819 3.30729 6.38045 5.04967 5.04994M8.24968 3.53327C8.82329 3.39901 9.41056 3.33189 9.99968 3.33327C15.833 3.33327 19.1663 9.99994 19.1663 9.99994C18.6605 10.9463 18.0572 11.8372 17.3663 12.6583M11.7663 11.7666C11.5375 12.0122 11.2615 12.2092 10.9548 12.3459C10.6481 12.4825 10.3171 12.556 9.98142 12.5619C9.64574 12.5678 9.31231 12.5061 9.00102 12.3803C8.68972 12.2546 8.40694 12.0675 8.16955 11.8301C7.93215 11.5927 7.745 11.3099 7.61927 10.9986C7.49353 10.6873 7.43178 10.3539 7.4377 10.0182C7.44363 9.68252 7.5171 9.35148 7.65374 9.04481C7.79038 8.73815 7.98739 8.46215 8.23301 8.23327" stroke="#2F2F2F" stroke-width="1.8" stroke-linecap="round" stroke-linejoin="round"/>
      <path d="M0.833008 0.833374L19.1663 19.1667" stroke="#2F2F2F" stroke-width="1.8" stroke-linecap="round" stroke-linejoin="round"/>
    </g>
    <defs>
      <clipPath id="clip0">
        <rect width="20" height="20" fill="white"/>
      </clipPath>
    </defs>
  </symbol>

  <!-- Symbol 2 (edit icon) -->
  <symbol id="edit" width="16" height="16" viewBox="0 0 16 16" fill="none">
    <g clip-path="url(#clip1)">
      <path d="M11.333 1.99998C11.5081 1.82488 11.716 1.68599 11.9447 1.59123C12.1735 1.49647 12.4187 1.44769 12.6663 1.44769C12.914 1.44769 13.1592 1.49647 13.3879 1.59123C13.6167 1.68599 13.8246 1.82488 13.9997 1.99998C14.1748 2.17507 14.3137 2.38294 14.4084 2.61172C14.5032 2.84049 14.552 3.08569 14.552 3.33331C14.552 3.58093 14.5032 3.82613 14.4084 4.05491C14.3137 4.28368 14.1748 4.49155 13.9997 4.66664L4.99967 13.6666L1.33301 14.6666L2.33301 11L11.333 1.99998Z" stroke="#323F47" stroke-width="1.8" stroke-linecap="round" stroke-linejoin="round"/>
    </g>
    <defs>
      <clipPath id="clip1">
        <rect width="16" height="16" fill="white"/>
      </clipPath>
    </defs>
  </symbol>

  <!-- Symbol 3 (trash icon) -->
  <symbol id="trash" width="16" height="16" viewBox="0 0 16 16" fill="none">
    <path d="M6 2H10" stroke="#323F47" stroke-width="1.5" stroke-linecap="round" stroke-linejoin="round"/>
    <path d="M2 4H14M12.6667 4L12.1991 11.0129C12.129 12.065 12.0939 12.5911 11.8667 12.99C11.6666 13.3412 11.3648 13.6235 11.0011 13.7998C10.588 14 10.0607 14 9.00623 14H6.99377C5.93927 14 5.41202 14 4.99889 13.7998C4.63517 13.6235 4.33339 13.3412 4.13332 12.99C3.90607 12.5911 3.871 12.065 3.80086 11.0129L3.33333 4" stroke="#323F47" stroke-width="1.8" stroke-linecap="round" stroke-linejoin="round"/>
  </symbol>

  <!-- Symbol 4 (settings icon) -->
  <symbol id="settings" width="16" height="16" viewBox="0 0 16 16" fill="none">
    <g clip-path="url(#clip0_72_3790)">
        <path d="M8 10C9.10457 10 10 9.10457 10 8C10 6.89543 9.10457 6 8 6C6.89543 6 6 6.89543 6 8C6 9.10457 6.89543 10 8 10Z" stroke="#323F47" stroke-width="1.5" stroke-linecap="round" stroke-linejoin="round"/>
        <path d="M12.9337 10C12.8449 10.2011 12.8184 10.4242 12.8577 10.6404C12.8969 10.8567 13 11.0562 13.1537 11.2134L13.1937 11.2534C13.3176 11.3772 13.416 11.5242 13.4831 11.6861C13.5502 11.848 13.5847 12.0215 13.5847 12.1967C13.5847 12.3719 13.5502 12.5454 13.4831 12.7073C13.416 12.8691 13.3176 13.0162 13.1937 13.14C13.0698 13.264 12.9228 13.3623 12.7609 13.4294C12.599 13.4965 12.4255 13.5311 12.2503 13.5311C12.0751 13.5311 11.9016 13.4965 11.7397 13.4294C11.5779 13.3623 11.4308 13.264 11.307 13.14L11.267 13.1C11.1099 12.9463 10.9103 12.8432 10.6941 12.804C10.4778 12.7648 10.2547 12.7913 10.0537 12.88C9.85648 12.9645 9.68832 13.1049 9.56986 13.2837C9.45141 13.4626 9.38785 13.6722 9.38699 13.8867V14C9.38699 14.3536 9.24652 14.6928 8.99647 14.9428C8.74642 15.1929 8.40728 15.3334 8.05366 15.3334C7.70004 15.3334 7.3609 15.1929 7.11085 14.9428C6.8608 14.6928 6.72033 14.3536 6.72033 14V13.94C6.71516 13.7194 6.64374 13.5054 6.51533 13.3258C6.38693 13.1463 6.20748 13.0095 6.00033 12.9334C5.79925 12.8446 5.5762 12.8181 5.35993 12.8574C5.14367 12.8966 4.94411 12.9997 4.78699 13.1534L4.74699 13.1934C4.62316 13.3173 4.47611 13.4157 4.31425 13.4828C4.15238 13.5499 3.97888 13.5844 3.80366 13.5844C3.62844 13.5844 3.45494 13.5499 3.29307 13.4828C3.13121 13.4157 2.98416 13.3173 2.86033 13.1934C2.73636 13.0695 2.63801 12.9225 2.57091 12.7606C2.50381 12.5987 2.46928 12.4252 2.46928 12.25C2.46928 12.0748 2.50381 11.9013 2.57091 11.7394C2.63801 11.5776 2.73636 11.4305 2.86033 11.3067L2.90033 11.2667C3.05402 11.1096 3.15712 10.91 3.19633 10.6937C3.23554 10.4775 3.20907 10.2544 3.12033 10.0534C3.03582 9.85618 2.8955 9.68801 2.71664 9.56956C2.53778 9.45111 2.32818 9.38754 2.11366 9.38669H2.00033C1.6467 9.38669 1.30757 9.24621 1.05752 8.99616C0.807468 8.74611 0.666992 8.40698 0.666992 8.05335C0.666992 7.69973 0.807468 7.36059 1.05752 7.11055C1.30757 6.8605 1.6467 6.72002 2.00033 6.72002H2.06033C2.28099 6.71486 2.495 6.64343 2.67453 6.51503C2.85405 6.38662 2.9908 6.20718 3.06699 6.00002C3.15574 5.79894 3.18221 5.57589 3.143 5.35963C3.10378 5.14337 3.00068 4.94381 2.84699 4.78669L2.80699 4.74669C2.68302 4.62286 2.58468 4.47581 2.51758 4.31394C2.45048 4.15208 2.41594 3.97857 2.41594 3.80335C2.41594 3.62813 2.45048 3.45463 2.51758 3.29277C2.58468 3.1309 2.68302 2.98385 2.80699 2.86002C2.93082 2.73605 3.07787 2.63771 3.23974 2.57061C3.4016 2.50351 3.57511 2.46897 3.75033 2.46897C3.92555 2.46897 4.09905 2.50351 4.26091 2.57061C4.42278 2.63771 4.56983 2.73605 4.69366 2.86002L4.73366 2.90002C4.89078 3.05371 5.09034 3.15681 5.3066 3.19602C5.52286 3.23524 5.74592 3.20876 5.94699 3.12002H6.00033C6.19751 3.03551 6.36567 2.89519 6.48412 2.71633C6.60257 2.53747 6.66614 2.32788 6.66699 2.11335V2.00002C6.66699 1.6464 6.80747 1.30726 7.05752 1.05721C7.30757 0.807163 7.6467 0.666687 8.00033 0.666687C8.35395 0.666687 8.69309 0.807163 8.94314 1.05721C9.19318 1.30726 9.33366 1.6464 9.33366 2.00002V2.06002C9.33452 2.27454 9.39808 2.48414 9.51653 2.663C9.63498 2.84186 9.80315 2.98218 10.0003 3.06669C10.2014 3.15543 10.4245 3.1819 10.6407 3.14269C10.857 3.10348 11.0565 3.00038 11.2137 2.84669L11.2537 2.80669C11.3775 2.68272 11.5245 2.58437 11.6864 2.51727C11.8483 2.45018 12.0218 2.41564 12.197 2.41564C12.3722 2.41564 12.5457 2.45018 12.7076 2.51727C12.8694 2.58437 13.0165 2.68272 13.1403 2.80669C13.2643 2.93052 13.3626 3.07757 13.4297 3.23943C13.4968 3.4013 13.5314 3.5748 13.5314 3.75002C13.5314 3.92524 13.4968 4.09874 13.4297 4.26061C13.3626 4.42247 13.2643 4.56952 13.1403 4.69335L13.1003 4.73335C12.9466 4.89047 12.8435 5.09003 12.8043 5.30629C12.7651 5.52256 12.7916 5.74561 12.8803 5.94669V6.00002C12.9648 6.1972 13.1052 6.36537 13.284 6.48382C13.4629 6.60227 13.6725 6.66583 13.887 6.66669H14.0003C14.3539 6.66669 14.6931 6.80716 14.9431 7.05721C15.1932 7.30726 15.3337 7.6464 15.3337 8.00002C15.3337 8.35364 15.1932 8.69278 14.9431 8.94283C14.6931 9.19288 14.3539 9.33335 14.0003 9.33335H13.9403C13.7258 9.33421 13.5162 9.39778 13.3374 9.51623C13.1585 9.63468 13.0182 9.80284 12.9337 10Z" stroke="#323F47" stroke-width="1.5" stroke-linecap="round" stroke-linejoin="round"/>
    </g>
    <defs>
        <clipPath id="clip0_72_3790">
          <rect width="16" height="16" fill="white"/>
        </clipPath>
    </defs>
  </symbol>

  <!-- Symbol 5 (log-out icon) -->
    <symbol id="log-out" width="16" height="16" viewBox="0 0 16 16" fill="none">
        <path d="M6 14H3.33333C2.97971 14 2.64057 13.8595 2.39052 13.6095C2.14048 13.3594 2 13.0203 2 12.6667V3.33333C2 2.97971 2.14048 2.64057 2.39052 2.39052C2.64057 2.14048 2.97971 2 3.33333 2H6" stroke="#323F47" stroke-width="1.5" stroke-linecap="round" stroke-linejoin="round"/>
        <path d="M10.667 11.3334L14.0003 8.00002L10.667 4.66669" stroke="#323F47" stroke-width="1.5" stroke-linecap="round" stroke-linejoin="round"/>
        <path d="M14 8H6" stroke="#323F47" stroke-width="1.5" stroke-linecap="round" stroke-linejoin="round"/>
    </symbol>

  <!-- Symbol 6 (statistics icon) -->
  <symbol id="statistics" width="24" height="24" viewBox="0 0 24 24" fill="none">
    <path d="M17.2 14C17.477 14 17.6155 14 17.7278 14.0615C17.8204 14.1122 17.9065 14.2075 17.9478 14.3047C17.9978 14.4225 17.9852 14.5479 17.96 14.7987C17.8296 16.0987 17.3822 17.3514 16.6518 18.4445C15.7727 19.7601 14.5233 20.7855 13.0615 21.391C11.5997 21.9965 9.99113 22.1549 8.43928 21.8463C6.88743 21.5376 5.46197 20.7756 4.34315 19.6568C3.22433 18.538 2.4624 17.1125 2.15372 15.5607C1.84504 14.0088 2.00347 12.4003 2.60897 10.9385C3.21447 9.4767 4.23985 8.22727 5.55544 7.34822C6.64856 6.61782 7.90125 6.17038 9.20131 6.03994C9.45207 6.01478 9.57745 6.0022 9.69528 6.05219C9.79249 6.09343 9.88776 6.17962 9.9385 6.27222C10 6.38448 10 6.52298 10 6.79998V13.2C10 13.48 10 13.62 10.0545 13.727C10.1024 13.8211 10.1789 13.8975 10.273 13.9455C10.38 14 10.52 14 10.8 14H17.2Z" stroke="#323F47" stroke-width="2" stroke-linecap="round" stroke-linejoin="round"/>
    <path d="M14 2.79999C14 2.52298 14 2.38448 14.0615 2.27223C14.1122 2.17963 14.2075 2.09344 14.3047 2.0522C14.4225 2.0022 14.5479 2.01478 14.7987 2.03993C16.6271 2.22333 18.346 3.03229 19.6569 4.34313C20.9677 5.65398 21.7767 7.37289 21.9601 9.20129C21.9852 9.45206 21.9978 9.57744 21.9478 9.69527C21.9066 9.79248 21.8204 9.88774 21.7278 9.93848C21.6155 9.99998 21.477 9.99999 21.2 9.99999L14.8 9.99999C14.52 9.99999 14.38 9.99999 14.273 9.94549C14.1789 9.89755 14.1024 9.82106 14.0545 9.72698C14 9.62003 14 9.48001 14 9.19999L14 2.79999Z" stroke="#9BE1A0" stroke-width="2" stroke-linecap="round" stroke-linejoin="round"/>
  </symbol>

  <!-- Symbol 7 (close icon) -->
  <symbol id="close" width="28" height="28" viewBox="0 0 28 28" fill="none">
    <path d="M21 7L7 21" stroke="#2F2F2F" stroke-width="3" stroke-linecap="round" stroke-linejoin="round"/>
    <path d="M7 7L21 21" stroke="#2F2F2F" stroke-width="3" stroke-linecap="round" stroke-linejoin="round"/>
  </symbol>

  <!-- Symbol 8 (upload icon) -->
  <symbol id="upload" width="20" height="20" viewBox="0 0 20 20" fill="none">
    <path d="M17.5 12.5V15.8333C17.5 16.2754 17.3244 16.6993 17.0118 17.0118C16.6993 17.3244 16.2754 17.5 15.8333 17.5H4.16667C3.72464 17.5 3.30072 17.3244 2.98816 17.0118C2.67559 16.6993 2.5 16.2754 2.5 15.8333V12.5" stroke="#2F2F2F" stroke-width="1.8" stroke-linecap="round" stroke-linejoin="round"/>
    <path d="M14.1663 6.66667L9.99967 2.5L5.83301 6.66667" stroke="#2F2F2F" stroke-width="1.8" stroke-linecap="round" stroke-linejoin="round"/>
    <path d="M10 2.5V12.5" stroke="#2F2F2F" stroke-width="1.8" stroke-linecap="round" stroke-linejoin="round"/>
  </symbol>

  <!-- Symbol 9 (eye icon) -->
  <symbol id="eye" width="20" height="20" viewBox="0 0 20 20" fill="none">
    <g clip-path="url(#clip0_72_8574)">
        <path d="M0.833008 9.99998C0.833008 9.99998 4.16634 3.33331 9.99967 3.33331C15.833 3.33331 19.1663 9.99998 19.1663 9.99998C19.1663 9.99998 15.833 16.6666 9.99967 16.6666C4.16634 16.6666 0.833008 9.99998 0.833008 9.99998Z" stroke="#2F2F2F" stroke-width="1.8" stroke-linecap="round" stroke-linejoin="round"/>
        <path d="M10 12.5C11.3807 12.5 12.5 11.3807 12.5 10C12.5 8.61929 11.3807 7.5 10 7.5C8.61929 7.5 7.5 8.61929 7.5 10C7.5 11.3807 8.61929 12.5 10 12.5Z" stroke="#2F2F2F" stroke-width="1.8" stroke-linecap="round" stroke-linejoin="round"/>
    </g>
    <defs>
        <clipPath>
            <rect width="20" height="20" fill="white"/>
        </clipPath>
    </defs>
  </symbol>

  <!-- note-icon for settingsProfile -->
  <symbol id="note-icon" viewBox="0 0 18 18">
    <path
      d="M7.57934 10.4315C7.64769 11.1434 7.76356 11.6724 7.92303 12.0214C8.08447 12.3693 8.37106 12.5429 8.78478 12.5429C8.86212 12.5429 8.93131 12.5308 8.99994 12.5167C9.07025 12.5308 9.13916 12.5429 9.21706 12.5429C9.62966 12.5429 9.91709 12.3693 10.0777 12.0214C10.238 11.6724 10.3519 11.1434 10.4217 10.4315L10.789 4.93532C10.8573 3.86404 10.8922 3.09538 10.8922 2.62879C10.8922 1.99372 10.7265 1.49816 10.3941 1.14238C10.0605 0.7866 9.62234 0.609131 9.07953 0.609131C9.05056 0.609131 9.02891 0.6156 9.0005 0.616725C8.9735 0.6156 8.95128 0.609131 8.92316 0.609131C8.37922 0.609131 7.94187 0.7866 7.60887 1.14238C7.27616 1.49872 7.10938 1.99457 7.10938 2.62907C7.10938 3.09566 7.14341 3.86432 7.21287 4.9356L7.57934 10.4315ZM9.01428 14.5518C8.48722 14.5518 8.03947 14.718 7.66766 15.0505C7.29612 15.3832 7.10994 15.7871 7.10994 16.2613C7.10994 16.7965 7.29837 17.2178 7.67244 17.5238C8.04819 17.8298 8.48637 17.9828 8.98728 17.9828C9.49719 17.9828 9.94184 17.832 10.3221 17.5297C10.7018 17.2282 10.8916 16.8046 10.8916 16.2618C10.8916 15.7876 10.7099 15.3838 10.3466 15.051C9.98319 14.718 9.53909 14.5518 9.01344 14.5518"
      fill="#9BE1A0"
    />
  </symbol>

  <!-- Symbol 10 (arrow-left icon) -->
  <symbol id="arrow-left" width="20" height="20" viewBox="0 0 20 20" fill="none">
    <path d="M11.25 13.5L6.75 9L11.25 4.5" stroke="#323F47" stroke-width="2" stroke-linecap="round" stroke-linejoin="round"/>
  </symbol>

  <!-- Symbol 11 (arrow-right icon) -->
  <symbol id="arrow-right" width="20" height="20" viewBox="0 0 20 20" fill="none">
    <path d="M6.75 13.5L11.25 9L6.75 4.5" stroke="#323F47" stroke-width="2" stroke-linecap="round" stroke-linejoin="round"/>
  </symbol>

  <!-- Symbol 12 (plus icon) -->
  <symbol id="plus" width="24" height="24" viewBox="0 0 24 24" fill="none">
    <path d="M12 5V19" stroke="#323F47" stroke-width="2" stroke-linecap="round" stroke-linejoin="round"/>
    <path d="M5 12H19" stroke="#323F47" stroke-width="2" stroke-linecap="round" stroke-linejoin="round"/> 
  </symbol>

  <!-- Symbol 12 (whitePlus icon) -->
  <symbol id="whitePlus" width="24" height="24" viewBox="0 0 24 24" fill="none" xmlns="http://www.w3.org/2000/svg">
    <path d="M12 5V19" stroke="white" stroke-width="2" stroke-linecap="round" stroke-linejoin="round"/>
    <path d="M5 12H19" stroke="white" stroke-width="2" stroke-linecap="round" stroke-linejoin="round"/>
  </symbol>

  <!-- Symbol 13 (minus icon) -->
  <symbol id="minus" width="24" height="24" viewBox="0 0 24 24" fill="none">
    <path d="M5 12H19" stroke="#323F47" stroke-width="2" stroke-linecap="round" stroke-linejoin="round"/> 
  </symbol>

  <!-- Symbol 14 (water icon)-->
  <symbol id="water" width="44" height="45" viewBox="0 0 44 45" fill="none">
    <path d="M37.9056 7.34867C37.7726 6.89785 37.5482 6.48177 37.2473 6.12836C36.9464 5.77495 36.576 5.4924 36.1611 5.29969C35.749 5.09981 35.2988 4.99886 34.8438 5.00434H9.22806C8.77332 4.97782 8.31966 5.07318 7.91078 5.28123C7.48682 5.47608 7.10986 5.7661 6.80711 6.13036C6.50635 6.48316 6.28179 6.89854 6.14847 7.34867C6.01051 7.7953 5.96799 8.26773 6.02386 8.73312L8.94324 34.5762C9.13905 36.3446 9.9579 37.9727 11.2396 39.1541C12.4924 40.334 14.122 40.9916 15.8145 41H28.2752C29.9732 40.9926 31.6087 40.3353 32.8679 39.1541C34.1328 37.9613 34.9416 36.3363 35.1465 34.5762L36.7308 20.0487V19.8272L37.959 8.75158C38.0279 8.28471 38.0098 7.80846 37.9056 7.34867ZM19.9265 35.6837H18.1464C16.9933 35.6172 15.8956 35.1489 15.0312 34.3546C14.1699 33.5498 13.6038 32.4605 13.4291 31.2719L13.0019 28.0969C12.9471 27.6129 13.0771 27.1259 13.3643 26.7402C13.6514 26.3544 14.0728 26.1006 14.5382 26.033C15.0036 25.9654 15.4761 26.0895 15.8543 26.3787C16.2326 26.6678 16.4867 27.0991 16.5621 27.5801L16.9893 30.7182C17.0372 31.0612 17.2013 31.3753 17.4522 31.6042C17.7009 31.8409 18.0227 31.9783 18.36 31.9919H20.1401C20.6122 31.9919 21.065 32.1863 21.3989 32.5325C21.7327 32.8787 21.9202 33.3482 21.9202 33.8378C21.9202 34.3274 21.7327 34.7969 21.3989 35.1431C21.065 35.4892 20.6122 35.6837 20.1401 35.6837H19.9265ZM34.1674 18.6458C30.4114 19.4026 27.2072 19.5503 23.8072 16.7998C19.5883 13.3479 14.4794 14.4555 9.56628 16.2645L8.67622 8.43777C8.65871 8.35881 8.65871 8.27676 8.67622 8.1978C8.70045 8.12024 8.74334 8.05036 8.80083 7.99475C8.84296 7.92662 8.9055 7.87474 8.97884 7.84707C9.04867 7.82655 9.12263 7.82655 9.19246 7.84707H35.0397C35.1064 7.88579 35.1666 7.93569 35.2177 7.99475C35.2711 8.05013 35.3067 8.12212 35.3245 8.1978C35.3516 8.28165 35.3516 8.37238 35.3245 8.45623L34.1674 18.6458Z" fill="#9BE1A0"/>
  </symbol>
</svg>